# xmcd CD database file
#
# Track frame offsets:
#	150
#	25349
#	48092
#	70609
#	89497
#	111298
#	132479
#	156301
#	174068
#	201450
#	217558
#	235874
#	247219
#	268998
#	291086
#	314790
#
# Disc length: 4496 seconds
#
# Revision: 0
# Processed by: cddbd v1.5.2PL0 Copyright (c) Steve Scherf et al.
# Submitted via: CDex 1.70beta2
#
DISCID=ef118e10
DTITLE=Marty Grosz, Ken Peplowski, Jon-Erik Kellso, Vince Giordano - Remembering Louis
DYEAR=2001
DGENRE=Jazz
TTITLE0=Mandy, make up your Mind
TTITLE1=Down in Honky Tonky Town
TTITLE2=Coal Cart Blues
TTITLE3=How am I to know
TTITLE4=Everybody loves my Baby
TTITLE5=There's a Cabin in the Pines
TTITLE6=Sweethearts on Parade
TTITLE7=Santa Claus Blues
TTITLE8=Once in a While
TTITLE9=The Song is ended
TTITLE10=No one else but you
TTITLE11=In the Land of beginning again
TTITLE12=I'm a little Blackbird
TTITLE13=Cake walking Babies from Home
TTITLE14=Of all the Things you've done to me
TTITLE15=Jubilee
EXTD=YEAR: 2001
EXTT0=
EXTT1=
EXTT2=
EXTT3=
EXTT4=
EXTT5=
EXTT6=
EXTT7=
EXTT8=
EXTT9=
EXTT10=
EXTT11=
EXTT12=
EXTT13=
EXTT14=
EXTT15=
PLAYORDER=
